<?xml version="1.0" encoding="utf-8"?>
<!-- Generator: Adobe Illustrator 25.2.1, SVG Export Plug-In . SVG Version: 6.00 Build 0)  -->
<svg version="1.1" id="Layer_1" xmlns="http://www.w3.org/2000/svg" xmlns:xlink="http://www.w3.org/1999/xlink" x="0px" y="0px"
	 viewBox="0 0 512 512" style="enable-background:new 0 0 512 512;" xml:space="preserve">
<style type="text/css">
	.st0{fill:#E30613;}
	.st1{fill:#FFFFFF;}
</style>
<polygon class="st0" points="256,256 -7.3,256 -7.3,127.1 "/>
<polygon class="st0" points="256,256 -7.3,-13.3 167.8,-13.3 "/>
<polygon class="st1" points="256,256 -7.3,128.9 -7.3,-13.3 "/>
<polygon class="st1" points="256,256 167.8,-13.3 256,-13.3 "/>
<polygon class="st0" points="255.2,256.8 525.6,256.8 525.6,128 "/>
<polygon class="st0" points="255.2,256.8 525.6,-12.5 345.7,-12.5 "/>
<polygon class="st1" points="255.2,256.8 525.6,129.7 525.6,-12.5 "/>
<polygon class="st1" points="255.2,256.8 345.7,-12.5 255.2,-12.5 "/>
<polygon class="st0" points="256,255.9 -7.3,255.9 -7.3,384 "/>
<polygon class="st0" points="256,255.9 -7.3,523.7 167.8,523.7 "/>
<polygon class="st1" points="256,255.9 -7.3,382.3 -7.3,523.7 "/>
<polygon class="st1" points="256,255.9 167.8,523.7 256,523.7 "/>
<polygon class="st0" points="255.2,255.1 525.6,255.1 525.6,383.2 "/>
<polygon class="st0" points="255.2,255.1 525.6,522.8 345.7,522.8 "/>
<polygon class="st1" points="255.2,255.1 525.6,381.5 525.6,522.8 "/>
<polygon class="st1" points="255.2,255.1 345.7,522.8 255.2,522.8 "/>
</svg>
